<?xml version="1.0" encoding="utf-8"?>
<!-- Generator: Adobe Illustrator 15.0.0, SVG Export Plug-In . SVG Version: 6.00 Build 0)  -->
<!DOCTYPE svg PUBLIC "-//W3C//DTD SVG 1.1//EN" "http://www.w3.org/Graphics/SVG/1.1/DTD/svg11.dtd">
<svg version="1.1" id="Layer_1" xmlns="http://www.w3.org/2000/svg" xmlns:xlink="http://www.w3.org/1999/xlink" x="0px" y="0px"
	 width="960px" height="413px" viewBox="0 0 960 413" enable-background="new 0 0 960 413" xml:space="preserve">
<g>
	<g>
		<path fill-rule="evenodd" clip-rule="evenodd" d="M330,240c3.333,0,6.667,0,10,0c6.11,10.557,11.188,22.146,18,32
			c6.612-10.055,11.891-21.443,18-32c3,0,6,0,9,0c-0.006,15.861,0.261,30.41,0,43c-3,0-6,0-9,0c0-7.666,0-15.334,0-23
			c-4.721,7.279-8.629,15.371-13,23c-3.334,0-6.666,0-10,0c-3.957-7.377-8.433-14.233-12-22c-2.321,5.346-0.343,14.99-1,22
			c-3.333,0-6.667,0-10,0C330.493,268.158,330.43,254.897,330,240z"/>
		<path fill-rule="evenodd" clip-rule="evenodd" d="M404,240c0,11.334,0,22.666,0,34c8.666,0,17.334,0,26,0
			c1.293-7.631,0.39-24.346,1-34c3,0,6,0,9,0c0,14.334,0,28.666,0,43c-15.334,0-30.666,0-46,0c0-14.334,0-28.666,0-43
			C397.334,240,400.666,240,404,240z"/>
		<path fill-rule="evenodd" clip-rule="evenodd" d="M513,240c0,14.334,0,28.666,0,43c-3.334,0-6.666,0-10,0c0-14.334,0-28.666,0-43
			C506.333,240,509.666,240,513,240z"/>
		<path fill-rule="evenodd" clip-rule="evenodd" d="M521,240c15.334,0,30.667,0,46,0c-0.586,4.646,1.367,6.037,0,9c-12,0-24,0-36,0
			c0,8,0,16,0,24c10.005,2.328,24.33,0.337,36,1c0.609,2.391-1.255,7.256,1,8c-14.548,2.128-33.356,0.67-47,1
			C521.064,268.66,522,252.938,521,240z"/>
		<path fill-rule="evenodd" clip-rule="evenodd" d="M581,240c15.333,0,30.667,0,46,0c0.11,4.959-0.981,4.913,0,9
			c-12.333,0-24.667,0-37,0c0,2,0,4,0,6c10.338,2.328,24.996,0.337,37,1c-0.259,4.59-1.063,4.832,0,9c-12.333,0-24.667,0-37,0
			c0,2.666,0,5.334,0,8c10.044,2.956,26.943-0.943,37,2c-2.255,2.162,0.828,3.411,0,7c-13.37,2.297-30.973,0.361-46,1
			C580.495,269.918,581.194,256.695,581,240z"/>
		<path fill-rule="evenodd" clip-rule="evenodd" d="M672,240c2.788,14.545,9.36,25.307,9,43c-15.333,0-30.667,0-46,0
			c0.338-14.479-0.145-26.821,0-43C647.333,240,659.667,240,672,240z M645,274c8.667,0,17.333,0,26,0
			c-2.444-8.223-4.098-17.236-7-25c-6.333,0-12.667,0-19,0C645,257.334,645,265.666,645,274z"/>
		<path fill-rule="evenodd" clip-rule="evenodd" d="M699,240c-0.168,16.023,0.354,28.866,0,43c-3,0-6,0-9,0c0-14.334,0-28.666,0-43
			C693,240,696,240,699,240z"/>
		<path fill-rule="evenodd" clip-rule="evenodd" d="M708,240c15.333,0,30.667,0,46,0c-0.451,4.781-0.451,4.219,0,9
			c-5.667,0-11.333,0-17,0c-2.449,13.375-0.717,19.713-1,34c-3.333,0-6.667,0-10,0c0.418-10.915-0.987-23.654,1-33
			c-4.523-2.144-12.861-0.472-19-1C708,246,708,243,708,240z"/>
		<path fill-rule="evenodd" clip-rule="evenodd" d="M762,241c1.387-2.28,6.961-0.373,10-1c0,14.334,0,28.666,0,43
			c-3.333,0-6.667,0-10,0C763.499,271.064,763.565,251.274,762,241z"/>
		<path fill-rule="evenodd" clip-rule="evenodd" d="M835,240c21.491,0.509,23.275,20.725,37,29c0-9.666,0-19.334,0-29c3,0,6,0,9,0
			c0,14.334,0,28.666,0,43c-3.333,0-6.667,0-10,0c-8.093-10.24-17.237-19.43-26-29c0,9.666,0,19.334,0,29c-3.333,0-6.667,0-10,0
			C835.083,267.719,835.35,253.477,835,240z"/>
		<path fill-rule="evenodd" clip-rule="evenodd" d="M890,240c15.333,0,30.667,0,46,0c0,3,0,6,0,9c-12,0-24,0-36,0
			c0.132,2.465,0.151,4.818-1,6c7.881,1.941,24.599,0.589,37,1c0,9,0,18,0,27c-16.09-0.213-32.559,0.346-46,0c0-3,0-6,0-9
			c12,0,24,0,36,0c0-2.666,0-5.334,0-8c-10.005-2.328-24.33-0.337-36-1C890,256.666,890,248.334,890,240z"/>
		<path fill-rule="evenodd" clip-rule="evenodd" d="M63,239c-4.333,0-8.667,0-13,0c15.591,79.47,71.062,131.011,159,142
			c83.126,1.496,131.649-36.777,164-89c8,0,16,0,24,0c-32.939,64.575-96.238,114.19-183,111c-56.812-2.089-104.239-26.879-137-62
			c-31.76-34.047-56.731-84.445-53-146C30.461,88.402,110.359,18.973,213,10c90.456,0.337,151.85,45.814,184,111c-8,0-16,0-24,0
			c-6.996-13.004-16.854-23.146-25-35c-33.828-37.823-112.856-71.613-184-44C103.28,63.613,63.775,106.441,49,174
			c4.333,0,8.667,0,13,0C81.264,98.133,146.936,36.404,236,46c54.903,5.915,95.201,34.474,120,75c-6.339-0.643-15.111,0.387-24,0
			c-27.281-27.355-56.394-53.092-108-54c-79.439-1.398-139.222,58.658-143,133c-2.611,51.383,21.526,87.238,51,115
			c28.138,21.98,66.259,33.994,106,29c40.521-5.092,72.158-25.896,93-52c8.333,0,16.667,0,25,0c-5.379,15.132-21.761,25.645-30,36
			c-0.527,0.663,2.194,2.973-1,1c-7.446,5.888-15.748,10.919-23,17c-30.157,16.276-69.652,26.435-111,19
			C123.198,352.809,77.73,303.004,63,239z"/>
		<path fill-rule="evenodd" clip-rule="evenodd" d="M559,129c2.333,31.334,0.334,67,1,100c-34.666,0-69.334,0-104,0
			c0-33.333,0-66.667,0-100C487.756,130.176,525.652,129.834,559,129z M477,151c-0.125,17.764-0.175,37.197,0,57
			c22.783-1.139,44.129,0.184,62-1c0-18.666,0-37.334,0-56C516.547,150.88,499.842,150.965,477,151z"/>
		<path fill-rule="evenodd" clip-rule="evenodd" d="M810,129c2.265,35.086,0.059,65.146,1,100c-37.811-0.113-66.627-0.104-105,0
			c0.666-32.667-1.333-68,1-99C741.648,128.3,777.148,130.603,810,129z M727,151c0,18.666,0,37.334,0,56
			c23.163,1.475,39.561,0.012,62,1c0.064-21.107,0.104-36.062,0-57C768.333,151,747.667,151,727,151z"/>
		<path fill-rule="evenodd" clip-rule="evenodd" d="M434,129c2.32,5.346,0.343,14.99,1,22c-30.42-0.183-50.674-0.043-82,0
			c-1.743,2.961-1.211,12.275-1,14c25.668,2.332,55.666,0.334,83,1c0,21,0,42,0,63c-35,0-70,0-105,0c-0.156-9.042,0.774-13.01,0-21
			c26.916-0.773,53.266-0.936,83,0c2.16-4.84,0.46-13.54,1-20c-28.535-2.599-61.232,0.144-84-1c0.529-15.684-0.138-35.678,0-57
			C364.857,128.792,404.334,130.347,434,129z"/>
		<path fill-rule="evenodd" clip-rule="evenodd" d="M603,130c19.697,22.97,40.064,45.269,61,67c0.058-24.434,0.087-42.711,0-67
			c6.804-0.424,15.494-0.934,22,0c-0.26,31.542-0.547,71.449,0,99c-6.667,0-13.333,0-20,0c-23.4-20.6-41.519-46.482-64-68
			c0,22.666,0,45.333,0,68c-7,0-14,0-21,0c0.666-32.667-1.333-68,1-99C588.82,128.627,594.058,130.055,603,130z"/>
		<path fill-rule="evenodd" clip-rule="evenodd" d="M936,130c0,19,0,38,0,57c-6.667,0-13.333,0-20,0
			c4.112,12.225,13.109,28.222,20,41c-6.676,2.324-17.66,0.34-26,1c-5.424-15.242-14.121-27.212-20-42c-13.53,0.35-23.007,0.2-37,0
			c-2.353,16.928,0.238,26.211-1,42c-8.529,0.357-14.493-0.709-21,0c0-33,0-66,0-99C867.625,128.963,899.285,129.313,936,130z
			 M852,151c0,5,0,10,0,15c21,0,42,0,63,0c0-5,0-10,0-15C894,151,873,151,852,151z"/>
		<path fill-rule="evenodd" clip-rule="evenodd" d="M220,117c0.19-1.135,1.003-0.555,1,0c56.217,3.449,84.178,35.156,90,89
			c-0.166,14.168-3.837,24.83-7,36c-6.455,10.545-13.326,20.674-21,30c-22.916,27.615-89.466,32.16-117,7
			c-46.063-30.794-46.563-113.788,0-145C181.231,125.564,195.332,115.999,220,117z M211,235c11.445,3.723,25.995-0.867,34-10
			c7.628-12.185,6.947-27.201-1-38c-6.017-4.99-14.956-12.368-25-10C183.749,178.285,182.733,225.806,211,235z"/>
		<path fill-rule="evenodd" clip-rule="evenodd" d="M449,240c15.334,0,30.666,0,46,0c0,3,0,6,0,9c-12.334,0-24.666,0-37,0
			c0,2,0,4,0,6c12.512,2.322,24.617-0.041,37,1c0,9,0,18,0,27c-14.139,0.352-29.497-0.2-46,0c0-3,0-6,0-9c12,0,24,0,36,0
			c0-2.666,0-5.334,0-8c-10.005-2.328-24.33-0.337-36-1C449,256.666,449,248.334,449,240z"/>
		<path fill-rule="evenodd" clip-rule="evenodd" d="M827,240c-0.263,11.012,0.184,28.849,0,43c-15.333,0-30.667,0-46,0
			c0.357-16.246-0.641-31.553,0-43C796.333,240,811.667,240,827,240z M790,250c0,8,0,16,0,24c9,0,18,0,27,0
			c0.579-5.953-0.374-16.224,0-25C808.26,249.593,797.101,247.768,790,250z"/>
		<path fill-rule="evenodd" clip-rule="evenodd" d="M310,121c-10,0-20,0-30,0c-19.121-10.939-37.632-20.176-68-18
			c-51.757,3.707-89.499,42.224-95,91c-8.538,75.699,59.559,135.529,142,109c7.333-3.334,13.994-7.34,21-11c10.333,0,20.667,0,31,0
			c-21.644,23.812-54.437,42.58-97,40c-68.676-4.163-109.686-52.373-119-115c-2.273-51.273,17.882-80.117,42-105
			c21.37-16.143,41.983-27.555,75-31c23.99-0.656,43.315,3.352,59,11C286.524,98.479,303.5,108.831,310,121z"/>
	</g>
</g>
</svg>
